# MagicaVoxel @ Ephtracy

# group
o 

# material
mtllib Tile.mtl
usemtl palette

# normals
vn -1 0 0
vn 1 0 0
vn 0 0 1
vn 0 0 -1
vn 0 -1 0
vn 0 1 0

# texcoords
vt 0.306641 0.5
vt 0.537109 0.5
vt 0.583984 0.5
vt 0.630859 0.5

# verts
v -0.5 0 0.5
v -0.5 0 -0.5
v -0.5 0.5 0.4
v -0.5 0.5 0.3
v -0.5 0.5 0.2
v -0.5 0.5 0.1
v -0.5 0.5 0
v -0.5 0.5 -0.1
v -0.5 0.5 -0.4
v -0.5 0.5 -0.5
v -0.5 0.6 0.5
v -0.5 0.6 0.4
v -0.5 0.6 0.1
v -0.5 0.6 0
v -0.5 0.6 -0.1
v -0.5 0.6 -0.2
v -0.5 0.6 -0.3
v -0.5 0.6 -0.4
v -0.5 0.7 0.3
v -0.5 0.7 0.2
v -0.5 0.7 -0.2
v -0.5 0.7 -0.3
v -0.5 1 0.5
v -0.5 1 -0.5
v 0.5 0 0.5
v 0.5 0 -0.5
v 0.5 0.5 0.3
v 0.5 0.5 0.1
v 0.5 0.5 0
v 0.5 0.5 -0.1
v 0.5 0.5 -0.2
v 0.5 0.5 -0.3
v 0.5 0.6 -0.1
v 0.5 0.6 -0.2
v 0.5 0.6 -0.3
v 0.5 0.6 -0.4
v 0.5 0.7 0.5
v 0.5 0.7 0.3
v 0.5 0.7 0.1
v 0.5 0.7 0
v 0.5 0.7 -0.4
v 0.5 0.7 -0.5
v 0.5 1 0.5
v 0.5 1 -0.5
v -0.5 0 0.5
v -0.5 0.6 0.5
v -0.5 1 0.5
v -0.4 0.6 0.5
v -0.4 0.7 0.5
v -0.3 0.6 0.5
v -0.3 0.7 0.5
v -0.2 0.5 0.5
v -0.2 0.6 0.5
v -0.1 0.5 0.5
v -0.1 0.6 0.5
v 0 0.5 0.5
v 0 0.6 0.5
v 0.1 0.5 0.5
v 0.1 0.7 0.5
v 0.2 0.5 0.5
v 0.2 0.7 0.5
v 0.3 0.5 0.5
v 0.3 0.6 0.5
v 0.4 0.6 0.5
v 0.4 0.7 0.5
v 0.5 0 0.5
v 0.5 0.7 0.5
v 0.5 1 0.5
v -0.5 0 -0.5
v -0.5 0.5 -0.5
v -0.5 1 -0.5
v -0.4 0.5 -0.5
v -0.4 0.7 -0.5
v -0.3 0.6 -0.5
v -0.3 0.7 -0.5
v -0.2 0.5 -0.5
v -0.2 0.6 -0.5
v 0 0.5 -0.5
v 0 0.6 -0.5
v 0.1 0.5 -0.5
v 0.1 0.6 -0.5
v 0.3 0.5 -0.5
v 0.3 0.6 -0.5
v 0.4 0.6 -0.5
v 0.4 0.7 -0.5
v 0.5 0 -0.5
v 0.5 0.7 -0.5
v 0.5 1 -0.5
v -0.5 0 0.5
v 0.5 0 0.5
v -0.5 0 -0.5
v 0.5 0 -0.5
v -0.5 1 0.5
v 0.5 1 0.5
v -0.4 1 0.4
v -0.2 1 0.4
v -0.4 1 0.3
v -0.2 1 0.3
v 0.1 1 0.3
v 0.3 1 0.3
v 0.1 1 0.2
v 0.3 1 0.2
v -0.2 1 0.1
v 0 1 0.1
v 0.2 1 0.1
v 0.4 1 0.1
v -0.2 1 0
v 0 1 0
v 0.2 1 0
v 0.4 1 0
v -0.1 1 -0.1
v 0.1 1 -0.1
v -0.1 1 -0.2
v 0.1 1 -0.2
v -0.4 1 -0.3
v -0.2 1 -0.3
v 0.1 1 -0.3
v 0.3 1 -0.3
v -0.4 1 -0.4
v -0.2 1 -0.4
v 0.1 1 -0.4
v 0.3 1 -0.4
v -0.5 1 -0.5
v 0.5 1 -0.5

# faces
f 3/2/1 2/2/1 1/2/1
f 4/2/1 2/2/1 3/2/1
f 5/2/1 2/2/1 4/2/1
f 6/2/1 2/2/1 5/2/1
f 7/2/1 2/2/1 6/2/1
f 8/2/1 2/2/1 7/2/1
f 9/2/1 2/2/1 8/2/1
f 10/2/1 2/2/1 9/2/1
f 11/2/1 3/2/1 1/2/1
f 12/3/1 4/3/1 3/3/1
f 12/2/1 3/2/1 11/2/1
f 13/3/1 6/3/1 5/3/1
f 13/2/1 7/2/1 6/2/1
f 14/3/1 8/3/1 7/3/1
f 14/2/1 7/2/1 13/2/1
f 15/2/1 9/2/1 8/2/1
f 15/3/1 8/3/1 14/3/1
f 16/2/1 9/2/1 15/2/1
f 17/2/1 9/2/1 16/2/1
f 18/3/1 10/3/1 9/3/1
f 18/2/1 9/2/1 17/2/1
f 19/2/1 5/2/1 4/2/1
f 19/3/1 4/3/1 12/3/1
f 19/3/1 12/3/1 11/3/1
f 20/3/1 16/3/1 15/3/1
f 20/2/1 5/2/1 19/2/1
f 20/3/1 13/3/1 5/3/1
f 20/3/1 15/3/1 14/3/1
f 20/3/1 14/3/1 13/3/1
f 21/2/1 17/2/1 16/2/1
f 21/3/1 16/3/1 20/3/1
f 22/3/1 18/3/1 17/3/1
f 22/2/1 17/2/1 21/2/1
f 23/3/1 21/3/1 20/3/1
f 23/3/1 19/3/1 11/3/1
f 23/3/1 22/3/1 21/3/1
f 23/3/1 20/3/1 19/3/1
f 24/3/1 10/3/1 18/3/1
f 24/3/1 22/3/1 23/3/1
f 24/3/1 18/3/1 22/3/1
f 25/2/2 26/2/2 27/2/2
f 27/2/2 26/2/2 28/2/2
f 28/2/2 26/2/2 29/2/2
f 29/2/2 26/2/2 30/2/2
f 30/2/2 26/2/2 31/2/2
f 31/2/2 26/2/2 32/2/2
f 29/3/2 30/3/2 33/3/2
f 30/2/2 31/2/2 33/2/2
f 31/3/2 32/3/2 34/3/2
f 33/2/2 31/2/2 34/2/2
f 32/2/2 26/2/2 35/2/2
f 34/3/2 32/3/2 35/3/2
f 35/2/2 26/2/2 36/2/2
f 25/2/2 27/2/2 37/2/2
f 27/3/2 28/3/2 38/3/2
f 37/2/2 27/2/2 38/2/2
f 28/2/2 29/2/2 39/2/2
f 38/3/2 28/3/2 39/3/2
f 33/3/2 34/3/2 40/3/2
f 39/2/2 29/2/2 40/2/2
f 29/3/2 33/3/2 40/3/2
f 35/3/2 36/3/2 40/3/2
f 34/3/2 35/3/2 40/3/2
f 36/2/2 26/2/2 41/2/2
f 40/3/2 36/3/2 41/3/2
f 41/2/2 26/2/2 42/2/2
f 39/3/2 40/3/2 43/3/2
f 37/3/2 38/3/2 43/3/2
f 41/3/2 42/3/2 43/3/2
f 40/3/2 41/3/2 43/3/2
f 38/3/2 39/3/2 43/3/2
f 43/3/2 42/3/2 44/3/2
f 48/2/3 46/2/3 45/2/3
f 48/3/3 47/3/3 46/3/3
f 49/3/3 47/3/3 48/3/3
f 50/2/3 48/2/3 45/2/3
f 50/2/3 49/2/3 48/2/3
f 51/3/3 47/3/3 49/3/3
f 51/2/3 49/2/3 50/2/3
f 52/2/3 50/2/3 45/2/3
f 53/3/3 51/3/3 50/3/3
f 53/2/3 50/2/3 52/2/3
f 54/2/3 52/2/3 45/2/3
f 54/3/3 53/3/3 52/3/3
f 55/3/3 51/3/3 53/3/3
f 55/3/3 53/3/3 54/3/3
f 56/2/3 54/2/3 45/2/3
f 56/2/3 55/2/3 54/2/3
f 57/3/3 51/3/3 55/3/3
f 57/2/3 55/2/3 56/2/3
f 58/2/3 56/2/3 45/2/3
f 58/3/3 57/3/3 56/3/3
f 59/3/3 47/3/3 51/3/3
f 59/3/3 57/3/3 58/3/3
f 59/3/3 51/3/3 57/3/3
f 60/2/3 58/2/3 45/2/3
f 60/2/3 59/2/3 58/2/3
f 61/3/3 47/3/3 59/3/3
f 61/2/3 59/2/3 60/2/3
f 62/2/3 60/2/3 45/2/3
f 62/3/3 61/3/3 60/3/3
f 63/3/3 61/3/3 62/3/3
f 64/2/3 63/2/3 62/2/3
f 64/3/3 61/3/3 63/3/3
f 65/3/3 47/3/3 61/3/3
f 65/3/3 61/3/3 64/3/3
f 66/2/3 64/2/3 62/2/3
f 66/2/3 62/2/3 45/2/3
f 66/2/3 65/2/3 64/2/3
f 67/3/3 47/3/3 65/3/3
f 67/2/3 65/2/3 66/2/3
f 68/3/3 47/3/3 67/3/3
f 69/2/4 70/2/4 72/2/4
f 70/3/4 71/3/4 72/3/4
f 72/3/4 71/3/4 73/3/4
f 72/2/4 73/2/4 74/2/4
f 73/3/4 71/3/4 75/3/4
f 74/2/4 73/2/4 75/2/4
f 69/2/4 72/2/4 76/2/4
f 72/2/4 74/2/4 76/2/4
f 74/3/4 75/3/4 77/3/4
f 76/2/4 74/2/4 77/2/4
f 69/2/4 76/2/4 78/2/4
f 76/3/4 77/3/4 78/3/4
f 77/3/4 75/3/4 79/3/4
f 78/3/4 77/3/4 79/3/4
f 69/2/4 78/2/4 80/2/4
f 78/2/4 79/2/4 80/2/4
f 79/3/4 75/3/4 81/3/4
f 80/2/4 79/2/4 81/2/4
f 69/2/4 80/2/4 82/2/4
f 80/3/4 81/3/4 82/3/4
f 81/3/4 75/3/4 83/3/4
f 82/3/4 81/3/4 83/3/4
f 82/2/4 83/2/4 84/2/4
f 83/3/4 75/3/4 84/3/4
f 75/3/4 71/3/4 85/3/4
f 84/3/4 75/3/4 85/3/4
f 82/2/4 84/2/4 86/2/4
f 69/2/4 82/2/4 86/2/4
f 84/2/4 85/2/4 86/2/4
f 85/3/4 71/3/4 87/3/4
f 86/2/4 85/2/4 87/2/4
f 87/3/4 71/3/4 88/3/4
f 91/2/5 90/2/5 89/2/5
f 92/2/5 90/2/5 91/2/5
f 93/3/6 94/3/6 95/3/6
f 95/3/6 94/3/6 96/3/6
f 93/3/6 95/3/6 97/3/6
f 95/4/6 96/4/6 97/4/6
f 96/3/6 94/3/6 98/3/6
f 97/4/6 96/4/6 98/4/6
f 98/3/6 94/3/6 99/3/6
f 99/3/6 94/3/6 100/3/6
f 97/3/6 98/3/6 101/3/6
f 98/3/6 99/3/6 101/3/6
f 99/4/6 100/4/6 101/4/6
f 100/3/6 94/3/6 102/3/6
f 101/4/6 100/4/6 102/4/6
f 97/3/6 101/3/6 103/3/6
f 101/3/6 102/3/6 103/3/6
f 103/3/6 102/3/6 104/3/6
f 104/3/6 102/3/6 105/3/6
f 102/3/6 94/3/6 106/3/6
f 105/3/6 102/3/6 106/3/6
f 97/3/6 103/3/6 107/3/6
f 103/4/6 104/4/6 107/4/6
f 104/3/6 105/3/6 108/3/6
f 107/4/6 104/4/6 108/4/6
f 105/4/6 106/4/6 109/4/6
f 108/3/6 105/3/6 109/3/6
f 106/3/6 94/3/6 110/3/6
f 109/4/6 106/4/6 110/4/6
f 108/3/6 109/3/6 111/3/6
f 107/3/6 108/3/6 111/3/6
f 109/3/6 110/3/6 111/3/6
f 111/3/6 110/3/6 112/3/6
f 107/3/6 111/3/6 113/3/6
f 111/4/6 112/4/6 113/4/6
f 112/3/6 110/3/6 114/3/6
f 113/4/6 112/4/6 114/4/6
f 93/3/6 97/3/6 115/3/6
f 97/3/6 107/3/6 115/3/6
f 113/3/6 114/3/6 115/3/6
f 107/3/6 113/3/6 115/3/6
f 115/3/6 114/3/6 116/3/6
f 114/3/6 110/3/6 117/3/6
f 116/3/6 114/3/6 117/3/6
f 117/3/6 110/3/6 118/3/6
f 115/4/6 116/4/6 119/4/6
f 93/3/6 115/3/6 119/3/6
f 116/3/6 117/3/6 120/3/6
f 119/4/6 116/4/6 120/4/6
f 117/4/6 118/4/6 121/4/6
f 120/3/6 117/3/6 121/3/6
f 118/3/6 110/3/6 122/3/6
f 121/4/6 118/4/6 122/4/6
f 120/3/6 121/3/6 123/3/6
f 119/3/6 120/3/6 123/3/6
f 121/3/6 122/3/6 123/3/6
f 93/3/6 119/3/6 123/3/6
f 122/3/6 110/3/6 124/3/6
f 123/3/6 122/3/6 124/3/6
f 110/3/6 94/3/6 124/3/6
